<?xml version="1.0" standalone="no"?>
<!DOCTYPE svg PUBLIC "-//W3C//DTD SVG 20010904//EN"
 "http://www.w3.org/TR/2001/REC-SVG-20010904/DTD/svg10.dtd">
<svg version="1.0" xmlns="http://www.w3.org/2000/svg"
 width="120.000000pt" height="120.000000pt" viewBox="0 0 120.000000 120.000000"
 preserveAspectRatio="xMidYMid meet">

<g transform="translate(0.000000,120.000000) scale(0.100000,-0.100000)"
fill="#000000" stroke="none">
<path d="M510 1053 c-27 -27 -61 -56 -74 -66 -15 -10 -30 -35 -37 -60 -6 -23
-15 -51 -19 -62 -14 -34 -34 -99 -36 -115 0 -8 -4 -24 -8 -36 -3 -11 0 -37 9
-57 8 -20 15 -48 15 -62 0 -17 4 -24 12 -19 8 5 9 0 6 -14 -4 -13 -1 -22 5
-22 7 0 6 -4 -3 -10 -12 -8 -12 -10 3 -16 10 -4 16 -13 13 -20 -11 -28 63
-206 119 -288 24 -35 25 -40 10 -56 -15 -16 -133 -66 -139 -58 -2 1 -11 14
-21 28 -11 16 -15 18 -11 7 3 -10 6 -26 6 -35 1 -45 67 -72 206 -87 58 -6 62
-5 69 17 4 13 9 30 10 38 2 23 16 50 26 50 4 0 5 -8 2 -17 -6 -16 -5 -16 10
-4 30 24 28 6 -3 -35 -16 -21 -30 -42 -30 -45 0 -11 74 9 78 21 2 5 9 7 14 4
6 -4 8 -2 4 4 -3 6 -1 23 5 39 12 30 18 91 9 95 -3 2 -21 39 -41 84 l-36 80
43 48 c24 26 48 65 54 88 9 33 14 37 26 28 21 -18 39 2 54 58 6 26 15 54 19
62 8 15 6 113 -2 161 -7 39 -35 89 -72 130 -18 20 -36 51 -40 68 -10 46 -124
119 -187 121 -10 0 -40 -21 -68 -47z m124 -349 c3 -8 1 -14 -5 -14 -6 0 -7 -4
-4 -10 3 -5 -1 -10 -10 -10 -13 0 -14 4 -5 20 7 14 7 20 0 20 -5 0 -10 4 -10
10 0 14 27 1 34 -16z m51 16 c4 -6 -5 -10 -19 -10 -14 0 -26 5 -26 10 0 6 9
10 19 10 11 0 23 -4 26 -10z m-148 -27 c-4 -3 -27 -9 -52 -13 -25 -4 -42 -4
-38 1 7 7 35 12 82 18 8 0 11 -2 8 -6z m40 1 c-3 -3 -12 -4 -19 -1 -8 3 -5 6
6 6 11 1 17 -2 13 -5z m-180 -39 c9 -25 -4 -29 -17 -6 -7 15 -7 21 0 21 6 0
13 -7 17 -15z m233 -44 c0 -32 6 -55 16 -66 22 -21 11 -30 -36 -30 -40 0 -77
23 -52 32 6 3 12 14 12 25 0 20 -1 20 -18 4 -28 -25 -102 -16 -121 15 -8 13
-11 21 -7 17 5 -4 15 0 22 10 12 16 15 16 41 1 15 -8 44 -15 63 -15 28 1 37 7
48 29 20 41 32 33 32 -22z m103 -38 c3 -5 0 -13 -7 -19 -8 -7 -17 -5 -30 8
-19 18 -19 18 7 18 14 0 28 -3 30 -7z m-168 -151 c-3 -3 -11 0 -18 7 -9 10 -8
11 6 5 10 -3 15 -9 12 -12z m-37 -31 c9 -5 25 -12 35 -15 24 -8 22 -36 -4 -36
-32 0 -59 19 -59 40 0 23 3 24 28 11z m-23 -291 c-3 -5 -10 -10 -16 -10 -5 0
-9 5 -9 10 0 6 7 10 16 10 8 0 12 -4 9 -10z"/>
<path d="M792 150 c0 -14 4 -36 8 -50 8 -24 8 -24 8 5 0 17 -3 39 -8 50 -8 18
-9 18 -8 -5z"/>
<path d="M331 84 c0 -11 3 -14 6 -6 3 7 2 16 -1 19 -3 4 -6 -2 -5 -13z"/>
</g>
</svg>
